<?xml version="1.0" encoding="UTF-8"?>
<svg id="Capa_1" data-name="Capa 1" xmlns="http://www.w3.org/2000/svg" viewBox="0 0 725.83 137.94">
  <defs>
    <style>
      .cls-1 {
        fill: #605cf4;
      }

      .cls-1, .cls-2 {
        stroke-width: 0px;
      }

      .cls-2 {
        fill: #101023;
      }
    </style>
  </defs>
  <path class="cls-2" d="M664.47,34.15l-28.03,65.4h14.67l5.98-14.57h27.66l5.98,14.57h15.04l-28.03-65.4h-13.27ZM662.22,72.37l8.69-21.06,8.69,21.06h-17.38Z"/>
  <rect class="cls-2" x="711.44" y="34.4" width="14.39" height="64.94"/>
  <path class="cls-2" d="M310.96,39.83c-8.51,0-16.31,4.17-21.08,11.21-4.77-7.04-12.57-11.21-21.08-11.21-14.06,0-25.51,11.44-25.51,25.51v34.21h8.85v-34.21c0-9.18,7.47-16.65,16.65-16.65s16.65,7.47,16.65,16.65v34.21h8.85v-34.21c0-9.18,7.47-16.65,16.65-16.65s16.65,7.47,16.65,16.65v34.21h8.86v-34.21c0-14.06-11.44-25.51-25.51-25.51Z"/>
  <path class="cls-2" d="M517.51,39.83c-14.07,0-25.51,11.44-25.51,25.51v34.21h8.86v-34.21c0-9.18,7.47-16.65,16.65-16.65s16.65,7.47,16.65,16.65v34.21h8.85v-34.21c0-14.06-11.44-25.51-25.51-25.51Z"/>
  <path class="cls-2" d="M607.75,44.77v-10.62h-8.86v10.62c0,4.56-1.8,8.81-5.07,11.97-3.2,3.1-5.91,4.67-12.16,4.67,0,0-.77,0-.77,0v.03c-5.79.24-11.13,2.36-15.52,6.16v-33.46h-8.85v65.4h8.85v-12.62c0-4.66,1.97-9.13,5.4-12.28,3.08-2.82,7.07-4.37,11.24-4.37.5,0,1.01.02,1.51.07,8.5.74,15.15,8.25,15.15,17.09v12.11h8.86v-12.11c0-8.5-4.24-16.62-11.13-21.47,1.3-.87,2.5-1.83,3.57-2.86,5.01-4.85,7.78-11.36,7.78-18.34Z"/>
  <path class="cls-2" d="M379.06,39.83c-7.86,0-15.41,3.15-21,8.7v-14.39h-8.85v35.6s.37,4.41.37,4.41c2.19,14.47,14.86,25.39,29.49,25.39,16.47,0,29.86-13.4,29.86-29.86s-13.39-29.86-29.86-29.86ZM379.06,48.69c11.58,0,21.01,9.42,21.01,21.01s-9.42,21-21.01,21-21-9.42-21-21,9.42-21.01,21-21.01Z"/>
  <path class="cls-2" d="M448.34,39.83c-16.47,0-29.86,13.39-29.86,29.86s13.39,29.86,29.86,29.86c7.86,0,15.42-3.15,21.01-8.7v8.7h8.85v-29.86c0-16.47-13.39-29.86-29.86-29.86ZM448.34,90.69c-11.58,0-21-9.42-21-21s9.42-21.01,21-21.01,21.01,9.42,21.01,21.01-9.42,21-21.01,21Z"/>
  <path class="cls-2" d="M204.15,90.69c-11.58,0-21-9.42-21-21.01s9.42-21,21-21c9.97,0,18.47,6.92,20.54,16.58h-21.28v8.86h30.61v-4.43c0-16.46-13.39-29.86-29.86-29.86s-29.86,13.39-29.86,29.86,13.39,29.86,29.86,29.86c8.97,0,17.37-4.02,23.02-10.86l-7.43-4.93c-3.96,4.39-9.6,6.94-15.59,6.94Z"/>
  <path class="cls-1" d="M116.46,26.99L75.67,2.77c-6.23-3.7-13.97-3.7-20.2,0L14.69,26.99c-6.17,3.66-10.01,10.48-10.01,17.77v15.83c-2.81,1.74-4.68,4.84-4.68,8.38s1.88,6.64,4.68,8.38v15.83c0,7.3,3.84,14.11,10.01,17.77l40.78,24.21c3.11,1.85,6.61,2.77,10.1,2.77s6.98-.92,10.1-2.77l40.78-24.21c6.17-3.67,10.01-10.48,10.01-17.77v-48.42c0-7.3-3.83-14.11-10.01-17.77ZM9.85,71.69c-1.5,0-2.72-1.22-2.72-2.72s1.22-2.72,2.72-2.72,2.72,1.22,2.72,2.72-1.22,2.72-2.72,2.72ZM117.91,93.18c0,4.29-2.23,8.28-5.82,10.41l-40.78,24.21c-3.53,2.1-7.92,2.1-11.46,0l-40.78-24.21c-3.41-2.03-5.59-5.73-5.8-9.78h24.58l21.21,12.19c.21,5.25,4.54,9.45,9.84,9.45s9.85-4.42,9.85-9.85-4.42-9.85-9.85-9.85c-2.44,0-4.67.89-6.39,2.36l-22.38-12.86H13.24v-7.03c2.4-.88,4.37-2.68,5.47-4.97h24.72c1.6,3.29,4.97,5.57,8.87,5.57,5.43,0,9.85-4.42,9.85-9.85s-4.42-9.85-9.85-9.85c-3.9,0-7.28,2.28-8.87,5.57h-24.72c-1.11-2.29-3.07-4.08-5.47-4.97v-7.03h26.89l22.53-12.94c1.7,1.4,3.87,2.23,6.24,2.23,5.43,0,9.85-4.42,9.85-9.85s-4.42-9.85-9.85-9.85-9.75,4.32-9.85,9.67l-21.21,12.18H13.26c.21-4.05,2.39-7.76,5.8-9.78L59.85,10.13c1.77-1.05,3.75-1.57,5.73-1.57s3.96.52,5.73,1.57l40.78,24.21c3.59,2.13,5.82,6.12,5.82,10.41v48.42ZM66.18,105.6c0-1.5,1.22-2.72,2.72-2.72,1.04,0,1.94.59,2.4,1.44.2.38.32.81.32,1.28,0,1.46-1.16,2.66-2.61,2.71-.04,0-.07,0-.11,0-1.5,0-2.72-1.22-2.72-2.72ZM49.59,68.97c0-1.5,1.22-2.72,2.72-2.72s2.72,1.22,2.72,2.72-1.22,2.72-2.72,2.72-2.72-1.22-2.72-2.72ZM66.18,32.13c0-1.49,1.21-2.71,2.7-2.72,0,0,.01,0,.02,0,1.5,0,2.72,1.22,2.72,2.72,0,.5-.14.98-.38,1.38-.47.8-1.34,1.34-2.34,1.34-1.5,0-2.72-1.22-2.72-2.72Z"/>
</svg>