<?xml version="1.0" encoding="UTF-8"?>
<svg id="Capa_1" data-name="Capa 1" xmlns="http://www.w3.org/2000/svg" viewBox="0 0 186.66 203.6">
  <defs>
    <style>
      .cls-1 {
        fill: #101023;
        stroke-width: 0px;
      }
    </style>
  </defs>
  <path class="cls-1" d="M171.89,39.83L111.69,4.09c-9.19-5.46-20.62-5.46-29.81,0L21.69,39.83c-9.11,5.41-14.77,15.46-14.77,26.23v23.36c-4.14,2.56-6.91,7.15-6.91,12.37s2.77,9.81,6.91,12.37v23.36c0,10.77,5.66,20.82,14.77,26.23l60.2,35.74c4.6,2.73,9.75,4.09,14.9,4.09s10.31-1.36,14.9-4.09l60.2-35.74c9.11-5.41,14.77-15.46,14.77-26.23v-71.47c0-10.77-5.66-20.82-14.77-26.23ZM14.54,105.81c-2.21,0-4.01-1.8-4.01-4.01s1.8-4.01,4.01-4.01,4.01,1.8,4.01,4.01-1.8,4.01-4.01,4.01ZM174.03,137.54c0,6.34-3.29,12.23-8.59,15.37l-60.2,35.74c-5.22,3.1-11.7,3.1-16.91,0l-60.2-35.74c-5.04-2.99-8.25-8.46-8.56-14.44h36.28l31.31,17.99c.31,7.75,6.7,13.95,14.52,13.95s14.54-6.52,14.54-14.54-6.52-14.54-14.54-14.54c-3.59,0-6.89,1.31-9.43,3.48l-33.04-18.98H19.55v-10.38c3.55-1.31,6.44-3.96,8.08-7.33h36.49c2.35,4.86,7.34,8.22,13.09,8.22,8.02,0,14.54-6.52,14.54-14.54s-6.52-14.54-14.54-14.54c-5.75,0-10.74,3.36-13.09,8.22H27.63c-1.64-3.37-4.53-6.03-8.08-7.33v-10.38h39.68l33.26-19.1c2.51,2.06,5.72,3.3,9.21,3.3,8.02,0,14.54-6.52,14.54-14.54s-6.52-14.54-14.54-14.54-14.39,6.38-14.53,14.27l-31.3,17.98H19.58c.3-5.98,3.52-11.45,8.56-14.44L88.33,14.96c2.61-1.55,5.53-2.32,8.46-2.32s5.85.77,8.46,2.32l60.2,35.74c5.3,3.14,8.59,9.03,8.59,15.37v71.47ZM97.68,155.87c0-2.21,1.8-4.01,4.01-4.01,1.53,0,2.86.86,3.54,2.13.3.56.47,1.2.47,1.88,0,2.16-1.71,3.92-3.85,4-.05,0-.11,0-.16,0-2.21,0-4.01-1.8-4.01-4.01ZM73.2,101.8c0-2.21,1.8-4.01,4.01-4.01s4.01,1.8,4.01,4.01-1.8,4.01-4.01,4.01-4.01-1.8-4.01-4.01ZM97.68,47.42c0-2.2,1.79-4,3.99-4.01,0,0,.02,0,.02,0,2.21,0,4.01,1.8,4.01,4.01,0,.74-.21,1.44-.56,2.04-.7,1.18-1.98,1.97-3.45,1.97-2.21,0-4.01-1.8-4.01-4.01Z"/>
</svg>