<?xml version="1.0" encoding="UTF-8"?>
<svg id="Capa_1" data-name="Capa 1" xmlns="http://www.w3.org/2000/svg" viewBox="0 0 600.32 338.01">
  <defs>
    <style>
      .cls-1 {
        fill: #fff;
        stroke-width: 0px;
      }
    </style>
  </defs>
  <path class="cls-1" d="M378.72,39.83l-60.2-35.74c-9.19-5.46-20.62-5.46-29.81,0l-60.2,35.74c-9.11,5.41-14.77,15.46-14.77,26.23v23.36c-4.14,2.56-6.91,7.15-6.91,12.37s2.77,9.81,6.91,12.37v23.36c0,10.77,5.66,20.82,14.77,26.23l60.2,35.74c4.6,2.73,9.75,4.09,14.9,4.09s10.31-1.36,14.9-4.09l60.2-35.74c9.11-5.41,14.77-15.46,14.77-26.23v-71.47c0-10.77-5.66-20.82-14.77-26.23ZM221.37,105.81c-2.21,0-4.01-1.8-4.01-4.01s1.8-4.01,4.01-4.01,4.01,1.8,4.01,4.01-1.8,4.01-4.01,4.01ZM380.85,137.54c0,6.34-3.29,12.23-8.59,15.37l-60.2,35.74c-5.22,3.1-11.7,3.1-16.91,0l-60.2-35.74c-5.04-2.99-8.25-8.46-8.56-14.44h36.28l31.31,17.99c.31,7.75,6.7,13.95,14.52,13.95s14.54-6.52,14.54-14.54-6.52-14.54-14.54-14.54c-3.59,0-6.89,1.31-9.43,3.48l-33.04-18.98h-39.68v-10.38c3.55-1.31,6.44-3.96,8.08-7.33h36.49c2.35,4.86,7.34,8.22,13.09,8.22,8.02,0,14.54-6.52,14.54-14.54s-6.52-14.54-14.54-14.54c-5.75,0-10.74,3.36-13.09,8.22h-36.49c-1.64-3.37-4.53-6.03-8.08-7.33v-10.38h39.68l33.26-19.1c2.51,2.06,5.72,3.3,9.21,3.3,8.02,0,14.54-6.52,14.54-14.54s-6.52-14.54-14.54-14.54-14.39,6.38-14.53,14.27l-31.3,17.98h-36.28c.3-5.98,3.52-11.45,8.56-14.44l60.2-35.74c2.61-1.55,5.53-2.32,8.46-2.32s5.85.77,8.46,2.32l60.2,35.74c5.3,3.14,8.59,9.03,8.59,15.37v71.47ZM304.51,155.87c0-2.21,1.8-4.01,4.01-4.01,1.53,0,2.86.86,3.54,2.13.3.56.47,1.2.47,1.88,0,2.16-1.71,3.92-3.85,4-.05,0-.11,0-.16,0-2.21,0-4.01-1.8-4.01-4.01ZM280.03,101.8c0-2.21,1.8-4.01,4.01-4.01s4.01,1.8,4.01,4.01-1.8,4.01-4.01,4.01-4.01-1.8-4.01-4.01ZM304.51,47.42c0-2.2,1.79-4,3.99-4.01,0,0,.02,0,.02,0,2.21,0,4.01,1.8,4.01,4.01,0,.74-.21,1.44-.56,2.04-.7,1.18-1.98,1.97-3.45,1.97-2.21,0-4.01-1.8-4.01-4.01Z"/>
  <g>
    <path class="cls-1" d="M533.53,266.82l-30.51,71.19h15.97l6.51-15.85h30.1l6.51,15.85h16.37l-30.51-71.19h-14.44ZM531.09,308.42l9.46-22.92,9.46,22.92h-18.92Z"/>
    <rect class="cls-1" x="584.66" y="267.1" width="15.66" height="70.68"/>
    <path class="cls-1" d="M148.76,273.01c-9.26,0-17.75,4.54-22.94,12.2-5.2-7.66-13.68-12.2-22.94-12.2-15.31,0-27.76,12.46-27.76,27.76v37.24h9.64v-37.24c0-9.99,8.13-18.12,18.12-18.12s18.12,8.13,18.12,18.12v37.24h9.64v-37.24c0-9.99,8.13-18.12,18.12-18.12s18.12,8.13,18.12,18.12v37.24h9.64v-37.24c0-15.31-12.46-27.76-27.77-27.76Z"/>
    <path class="cls-1" d="M373.57,273.01c-15.31,0-27.77,12.46-27.77,27.76v37.24h9.64v-37.24c0-9.99,8.13-18.12,18.12-18.12s18.12,8.13,18.12,18.12v37.24h9.64v-37.24c0-15.31-12.46-27.76-27.76-27.76Z"/>
    <path class="cls-1" d="M471.79,278.38v-11.56h-9.64v11.56c0,4.96-1.96,9.59-5.52,13.03-3.49,3.37-6.43,5.08-13.23,5.08,0,0-.83,0-.83,0v.03c-6.3.26-12.11,2.57-16.9,6.71v-36.42h-9.64v71.19h9.64v-13.74c0-5.07,2.14-9.94,5.88-13.36,3.35-3.07,7.69-4.76,12.23-4.76.55,0,1.1.02,1.65.07,9.25.81,16.49,8.98,16.49,18.6v13.19h9.64v-13.19c0-9.25-4.61-18.08-12.11-23.36,1.42-.94,2.72-1.99,3.89-3.12,5.46-5.28,8.47-12.36,8.47-19.96Z"/>
    <path class="cls-1" d="M222.88,273.01c-8.55,0-16.77,3.43-22.86,9.47v-15.66h-9.64v38.75s.4,4.79.4,4.79c2.38,15.75,16.18,27.64,32.1,27.64,17.92,0,32.5-14.58,32.5-32.5s-14.58-32.5-32.5-32.5ZM222.88,282.65c12.61,0,22.86,10.26,22.86,22.86s-10.26,22.86-22.86,22.86-22.86-10.25-22.86-22.86,10.25-22.86,22.86-22.86Z"/>
    <path class="cls-1" d="M298.29,273.01c-17.92,0-32.5,14.58-32.5,32.5s14.58,32.5,32.5,32.5c8.56,0,16.78-3.43,22.86-9.47v9.47h9.64v-32.5c0-17.92-14.58-32.5-32.5-32.5ZM298.29,328.37c-12.61,0-22.86-10.25-22.86-22.86s10.25-22.86,22.86-22.86,22.86,10.26,22.86,22.86-10.26,22.86-22.86,22.86Z"/>
    <path class="cls-1" d="M32.5,328.37c-12.61,0-22.86-10.26-22.86-22.86s10.25-22.86,22.86-22.86c10.85,0,20.1,7.53,22.35,18.04h-23.17v9.64h33.31v-4.82c0-17.92-14.58-32.5-32.5-32.5S0,287.59,0,305.5s14.58,32.5,32.5,32.5c9.76,0,18.91-4.37,25.06-11.82l-8.09-5.37c-4.31,4.77-10.45,7.55-16.97,7.55Z"/>
  </g>
</svg>